<svg width="427" height="57" viewBox="0 0 427 57" fill="none" xmlns="http://www.w3.org/2000/svg">
<rect x="4.5708" y="2.1073" width="190.134" height="51.8003" fill="white"/>
<rect x="234.625" y="3.78369" width="190.134" height="48.0523" fill="white"/>
<path d="M3.53528 0.695526C2.83893 1.01656 1.71407 2.03316 1.12486 2.83574C0 4.3339 0 4.81544 0 28.0903C0 51.3652 0 51.8467 1.12486 53.3449C1.71407 54.1475 2.83893 55.1641 3.53528 55.4851C4.55301 56.0201 25.2826 56.1807 98.7199 56.1807C180.995 56.1807 192.833 56.0737 194.172 55.3781C197.493 53.6659 197.386 54.522 197.386 28.0903C197.386 1.65863 197.493 2.51471 194.172 0.80254C192.833 0.106968 180.995 -4.19617e-05 98.7199 -4.19617e-05C25.2826 -4.19617e-05 4.55301 0.160473 3.53528 0.695526ZM67.2238 9.63094C67.813 10.0055 67.8666 10.273 67.4381 10.701C66.956 11.1826 66.6882 11.1826 66.4739 10.7546C65.8847 9.79145 63.5278 10.1125 62.3494 11.2896C60.9032 12.7342 61.2246 14.821 62.9922 16.2121C64.2777 17.1217 64.5991 17.1752 65.9383 16.5331C68.0808 15.463 68.188 14.4464 66.1525 14.4464C64.0099 14.4464 64.2777 13.1623 66.4739 12.9483C68.9914 12.7342 69.6878 13.4833 68.8308 15.463C67.5988 18.4593 64.1171 19.1549 61.5459 16.9077C58.4392 14.2859 60.4211 9.09588 64.492 9.09588C65.5633 9.09588 66.7953 9.36341 67.2238 9.63094ZM75.7942 9.57743C75.7942 9.89846 74.9907 10.166 74.0801 10.273C72.741 10.38 72.2589 10.701 72.1518 11.6106C71.9911 12.6807 72.2053 12.8413 73.9194 12.8413C76.3834 12.8413 76.2227 14.1254 73.7587 14.3394C72.4732 14.4464 72.0446 14.7675 72.0446 15.57C72.0446 16.3726 72.4196 16.5866 73.9194 16.5866C75.205 16.5866 75.7942 16.8542 75.7942 17.3892C75.7942 17.9778 75.1514 18.1918 73.1159 18.1918H70.4377V13.6438V9.09588H73.1159C74.6158 9.09588 75.7942 9.3099 75.7942 9.57743ZM83.2933 9.57743C83.2933 9.84496 82.7576 10.166 82.1148 10.273C80.99 10.4335 80.8828 10.7546 80.7221 14.2859C80.615 16.4261 80.3472 18.1918 80.0794 18.1918C79.8115 18.1918 79.5437 16.4261 79.4366 14.2859C79.2759 10.7546 79.1688 10.4335 78.0975 10.273C75.5799 9.89846 76.9726 9.09588 80.0794 9.09588C81.847 9.09588 83.2933 9.3099 83.2933 9.57743ZM88.6497 13.6438C88.6497 16.3191 88.4355 18.1918 88.1141 18.1918C87.7927 18.1918 87.5784 16.3191 87.5784 13.6438C87.5784 10.9686 87.7927 9.09588 88.1141 9.09588C88.4355 9.09588 88.6497 10.9686 88.6497 13.6438ZM96.1488 9.63094C96.1488 9.89846 95.6667 10.166 95.0775 10.166C94.1133 10.166 94.0062 10.5405 94.0062 14.1789C94.0062 17.3892 93.8455 18.1918 93.2027 18.1918C92.56 18.1918 92.3993 17.3892 92.3993 14.1789C92.3993 10.5405 92.2921 10.166 91.328 10.166C90.7388 10.166 90.2567 9.89846 90.2567 9.63094C90.2567 9.3099 91.5958 9.09588 93.2027 9.09588C94.8097 9.09588 96.1488 9.3099 96.1488 9.63094ZM107.772 10.273C109.486 11.8782 109.486 15.0885 107.665 16.8542C104.88 19.69 99.8983 17.6032 99.8983 13.5368C99.8983 9.63094 104.88 7.54422 107.772 10.273ZM114.2 12.1457L116.236 15.249L116.396 12.1457C116.664 7.38371 117.575 8.56083 117.575 13.6438C117.575 16.2656 117.36 18.1918 117.039 18.1918C116.771 18.1918 115.593 16.8007 114.522 15.142L112.486 12.0922L112.218 14.9815C112.058 16.5866 111.683 17.9243 111.308 18.0848C110.772 18.2453 110.611 17.1217 110.611 13.6973C110.611 8.02577 111.308 7.75824 114.2 12.1457ZM31.6568 17.9243C39.8522 22.5257 46.8692 26.6457 47.2441 27.1272C48.3154 28.4648 47.2441 29.642 42.7983 32.1032L38.6738 34.3504L35.7277 31.4076L32.7281 28.4113L23.5149 37.2397C16.6051 43.8209 14.2482 45.8006 13.9804 45.1585C13.3912 43.6604 13.6055 11.7712 14.1947 10.6475C14.5161 10.1125 15.2124 9.63094 15.748 9.63094C16.2837 9.63094 23.4614 13.3763 31.6568 17.9243ZM73.973 24.9335C75.9013 25.8431 76.2763 26.7527 75.0978 27.7158C74.5622 28.1973 74.0801 28.0903 73.1159 27.4482C71.4019 26.2176 67.5452 26.3246 65.724 27.6088C61.9745 30.3375 61.5995 35.153 64.8134 38.3634C66.4203 39.9685 66.9024 40.129 69.6342 40.129C72.2589 40.129 72.8481 39.915 74.2408 38.5774C76.6512 36.1161 76.3298 35.4206 72.741 35.2065C70.0092 35.046 69.6342 34.8855 69.4735 33.8154C69.3128 32.6918 69.42 32.6383 73.8658 32.6383H78.4724V34.9925C78.4724 42.5368 67.8666 45.6936 62.2959 39.808C56.618 33.7084 60.9032 24.0774 69.2593 24.0774C70.8662 24.0774 72.9552 24.4519 73.973 24.9335ZM124.002 33.7084V42.8043H122.663H121.324V33.7084V24.6125H122.663H124.002V33.7084ZM153.785 26.4316C157.909 30.5516 154.588 35.8486 148 35.8486H145.428V39.38C145.428 42.6973 145.375 42.8578 144.25 42.6973C143.018 42.5368 143.018 42.4298 142.857 33.5479L142.75 24.6125H147.357C151.91 24.6125 152.017 24.666 153.785 26.4316ZM159.891 33.7084V42.8043H158.552H157.213V33.7084V24.6125H158.552H159.891V33.7084ZM89.6139 31.8892C91.5958 33.2268 92.6135 36.1696 91.9172 38.5774C91.0601 41.4132 89.0782 42.8043 85.9715 42.8043C78.8474 42.8043 77.1869 33.8154 83.8289 31.0866C85.4358 30.391 87.8463 30.7656 89.6139 31.8892ZM102.255 31.2471C104.612 32.2102 105.79 33.9759 105.79 36.4907C105.79 40.6106 103.594 42.8043 99.3091 42.8043C96.3095 42.8043 93.4706 40.129 93.4706 37.2397C93.4706 34.5645 94.7026 32.4243 96.7916 31.4076C98.9877 30.3375 99.9519 30.284 102.255 31.2471ZM117.2 31.0866L119.289 30.9796L119.075 38.2028C118.914 44.9445 118.807 45.4796 117.628 46.7637C115.271 49.2785 111.04 49.1179 108.629 46.4427C107.719 45.4261 107.719 45.3726 108.737 44.6235C109.594 43.9814 109.861 43.9814 110.879 44.9445C113.075 46.9777 116.503 45.6936 116.503 42.8578C116.503 41.8412 116.343 41.6807 115.861 42.1622C115.486 42.5368 114.254 42.8043 113.129 42.8043C110.076 42.8043 107.397 40.0755 107.397 36.9722C107.397 35.7416 107.826 34.1364 108.308 33.3338C109.433 31.6217 112.058 30.391 113.825 30.8191C114.575 30.9796 116.075 31.0866 117.2 31.0866ZM133.644 31.3006C134.501 31.7822 135.626 32.8523 136.055 33.7084C136.858 35.26 136.858 35.3671 135.68 35.7951C128.288 38.6844 127.752 39.1124 130.162 40.236C131.394 40.7711 131.877 40.7176 133.162 39.9685C134.823 39.0589 136.322 39.2194 136.322 40.4501C136.322 42.7508 130.109 43.6604 127.591 41.7342C124.699 39.4335 124.592 34.7785 127.377 32.2637C129.466 30.3375 131.287 30.07 133.644 31.3006ZM169.265 31.2471C171.729 32.3172 172.211 33.4944 172.211 38.4704C172.211 42.7508 172.211 42.8043 170.872 42.8043C170.122 42.8043 169.533 42.5368 169.533 42.2693C169.533 41.8947 169.211 41.8947 168.515 42.2693C166.747 43.1788 164.069 42.9113 162.73 41.6272C159.57 38.6844 162.998 34.1364 167.765 35.046C169.586 35.3671 170.015 34.939 168.89 33.8154C168.086 33.0128 165.462 32.9593 164.98 33.7084C164.551 34.3504 163.64 34.404 162.623 33.7619C161.926 33.3338 161.926 33.1198 162.569 32.3707C164.123 30.4981 166.479 30.1235 169.265 31.2471ZM176.924 34.511C177.621 36.2766 178.371 37.9353 178.585 38.1493C178.799 38.3634 179.656 36.8652 180.46 34.7785C181.852 31.3541 182.067 31.0331 183.513 31.0331H185.066L183.674 34.0829C177.46 48.2619 177.46 48.1548 176.121 48.1548C174.675 48.1548 174.728 47.4058 176.496 43.9279L177.407 42.0552L175.103 36.8117C173.818 33.9224 172.746 31.4076 172.746 31.2471C172.746 31.0866 173.389 31.0331 174.193 31.1401C175.425 31.2471 175.853 31.8357 176.924 34.511Z" fill="black"/>
<path d="M102.416 11.1291C99.5235 14.3394 103.541 18.8874 106.594 15.8375C108.201 14.2324 108.308 12.6807 106.862 11.2361C105.523 9.89844 103.541 9.84494 102.416 11.1291Z" fill="black"/>
<path d="M145.696 27.4482C145.481 27.8762 145.428 29.2674 145.535 30.5515L145.696 32.9058L148.213 33.0663C150.195 33.1733 150.945 33.0128 151.802 32.1567C154.105 29.8559 152.498 27.3412 148.428 26.9131C146.553 26.6991 145.91 26.8061 145.696 27.4482Z" fill="black"/>
<path d="M83.3465 34.5644C82.7038 35.367 82.2217 36.4371 82.2217 37.0257C82.2217 38.3633 84.5785 40.6641 85.8641 40.6641C87.6317 40.6641 89.2387 38.9519 89.2922 37.0257C89.3994 33.4408 85.4891 31.8357 83.3465 34.5644Z" fill="black"/>
<path d="M97.2199 34.2434C95.7737 35.6881 95.8808 37.7748 97.4878 39.3265C99.0411 40.9316 100.595 41.0386 102.041 39.594C104.237 37.4003 102.684 33.1733 99.6303 33.1733C98.8804 33.1733 97.8091 33.6549 97.2199 34.2434Z" fill="black"/>
<path d="M111.146 34.2434C109.057 36.3301 110.504 40.6641 113.235 40.6641C114.949 40.6641 116.664 38.8449 116.664 37.0257C116.664 33.6548 113.396 31.9962 111.146 34.2434Z" fill="black"/>
<path d="M129.144 34.0294C128.394 34.7785 127.966 36.3837 128.502 36.3837C128.609 36.3837 129.894 35.9021 131.287 35.2601C133.269 34.4575 133.697 34.0829 133.108 33.7084C131.876 32.9058 130.055 33.0663 129.144 34.0294Z" fill="black"/>
<path d="M165.408 37.4537C163.051 38.4168 164.604 41.0921 167.122 40.45C168.247 40.1825 169.907 38.2028 169.425 37.7213C168.889 37.1862 166.425 37.0257 165.408 37.4537Z" fill="black"/>
<path d="M236.703 0.535C236.06 0.74902 235.042 1.65861 234.399 2.46119C233.274 3.85233 233.274 4.17337 233.274 27.3947C233.274 51.8467 233.328 52.2747 235.631 54.1474C236.703 55.0035 242.434 55.1105 329.477 55.1105C422.09 55.1105 422.197 55.1105 423.59 54.0404C424.394 53.3984 425.251 52.0072 425.572 50.9371C426.322 48.2083 426.268 6.84864 425.518 4.11986C425.143 2.72872 424.394 1.76562 423.269 1.07005C421.608 -5.72205e-05 419.787 -5.72205e-05 329.691 0.0534477C279.179 0.0534477 237.292 0.267471 236.703 0.535ZM272.912 9.09587C272.912 12.2527 269.377 16.0516 266.485 16.0516C265.145 16.0516 265.092 14.9815 266.485 12.3597C268.199 8.98886 272.912 6.63462 272.912 9.09587ZM300.016 9.09587C302.052 9.89845 302.855 11.1291 302.909 13.5368C302.909 16.4796 301.034 18.1918 297.82 18.1918H295.41V13.7508C295.41 11.2896 295.57 9.09587 295.785 8.93535C296.32 8.4003 298.356 8.50731 300.016 9.09587ZM334.512 13.3763C334.512 16.2121 334.298 18.1918 333.976 18.1918C333.655 18.1918 333.441 16.2121 333.441 13.3763C333.441 10.5405 333.655 8.56081 333.976 8.56081C334.298 8.56081 334.512 10.5405 334.512 13.3763ZM359.687 13.3228V18.0313L357.009 18.1383C354.92 18.1383 354.224 17.9778 353.795 17.1217C352.242 14.2859 354.063 10.7545 356.741 11.4501C357.973 11.7711 358.08 11.6641 358.08 10.166C358.08 9.09587 358.348 8.56081 358.884 8.56081C359.527 8.56081 359.687 9.47041 359.687 13.3228ZM394.504 10.4335C394.504 12.1992 394.558 12.2527 395.576 11.6641C397.45 10.487 398.522 11.6641 398.682 15.1955C398.79 17.6032 398.682 18.1918 397.986 18.1918C397.397 18.1918 397.183 17.5497 397.183 15.463C397.183 12.9483 397.076 12.7877 396.004 12.9483C394.933 13.1088 394.772 13.4833 394.612 15.6235C394.504 17.4427 394.237 18.1918 393.647 18.1918C393.058 18.1918 392.897 17.2287 392.897 13.3763C392.897 9.47041 393.058 8.56081 393.701 8.56081C394.237 8.56081 394.504 9.14937 394.504 10.4335ZM390.005 11.2361C391.023 11.2361 390.969 12.2527 389.951 12.6272C389.469 12.8412 389.148 13.6438 389.148 14.7674C389.148 15.9446 389.469 16.7471 389.951 16.9077C391.13 17.3892 390.916 18.1918 389.684 18.1918C388.398 18.1918 387.809 17.0682 387.38 13.8043C387.112 11.8246 387.22 11.0756 387.97 10.38C388.827 9.52391 388.88 9.52391 389.041 10.3265C389.148 10.808 389.576 11.2361 390.005 11.2361ZM310.408 12.3062C312.604 14.4999 311.104 18.1918 308.051 18.1918C307.033 18.1918 305.962 17.8173 305.587 17.3357C304.462 15.9981 304.73 13.3228 306.069 12.1992C307.676 10.9686 309.069 10.9686 310.408 12.3062ZM315.014 13.9649C315.603 16.2121 315.657 16.2656 316.193 14.9815C316.461 14.2324 316.782 13.1623 316.889 12.6272C317.318 10.594 318.389 11.1291 319.139 13.7508C319.942 16.3191 319.942 16.3191 320.317 14.7139C320.906 12.4667 321.656 11.1826 322.138 11.5036C322.406 11.6641 322.192 13.1623 321.71 14.8209C320.585 18.5663 319.246 19.2619 318.657 16.3726C318.175 13.6973 317.639 13.5903 316.889 16.0516C315.978 19.0479 314.961 18.7268 313.943 15.0885C312.925 11.3431 312.872 11.0756 313.782 11.3431C314.104 11.5036 314.693 12.6272 315.014 13.9649ZM325.941 11.8781C325.941 12.3597 326.102 12.3597 326.584 11.8781C328.459 10.0055 330.762 12.2527 330.762 15.8911C330.762 17.6032 330.548 18.1918 329.959 18.1918C329.37 18.1918 329.155 17.5497 329.155 15.8376C329.155 11.5036 326.584 11.3966 326.102 15.7305C325.674 19.3689 324.87 18.7268 324.87 14.7139C324.87 12.7342 325.084 11.2361 325.406 11.2361C325.727 11.2361 325.941 11.5036 325.941 11.8781ZM342.547 12.3062C344.689 14.4464 343.35 18.1918 340.35 18.1918C338.369 18.1918 337.19 16.9077 337.19 14.7139C337.19 11.6641 340.404 10.166 342.547 12.3062ZM350.26 12.4132C350.742 13.0553 351.117 14.6069 351.117 15.8376V18.0313L348.76 18.0848C345.921 18.1383 344.85 17.2287 345.76 15.5165C346.082 14.928 347.1 14.2859 347.957 14.0719C349.831 13.6973 349.724 12.6272 347.849 12.4667C345.6 12.3597 345.493 12.3062 346.296 11.7711C347.635 10.9151 349.403 11.1826 350.26 12.4132ZM371.472 12.3062C372.757 13.5903 372.864 15.8911 371.632 17.2287C370.454 18.5663 367.401 18.5128 366.651 17.1752C364.615 13.3228 368.525 9.36339 371.472 12.3062ZM379.935 11.8781C380.899 12.7342 380.792 18.1918 379.774 18.1918C379.185 18.1918 378.971 17.5497 378.971 15.463C378.971 12.9483 378.863 12.7877 377.792 12.9483C376.721 13.1088 376.56 13.4833 376.4 15.6235C376.292 17.4427 376.025 18.1918 375.435 18.1918C374.846 18.1918 374.685 17.3892 374.685 14.8209V11.5036L376.989 11.3966C378.221 11.3966 379.56 11.6106 379.935 11.8781ZM405.86 11.8781C406.342 12.2527 406.878 13.1088 407.092 13.7508C407.414 14.8745 407.253 14.9815 405.324 14.9815C404.2 14.9815 403.075 15.142 402.914 15.356C402.218 15.9981 403.718 17.1217 405.271 17.1217C406.128 17.1217 406.824 17.3357 406.824 17.6567C406.824 17.9243 405.86 18.1918 404.735 18.1918C403.128 18.1918 402.378 17.8708 401.789 17.0147C400.664 15.4095 400.718 14.3394 402.057 12.6272C403.235 11.1291 404.521 10.8615 405.86 11.8781ZM262.467 17.3892C265.199 18.4058 266.324 18.4058 269.216 17.3357C272.43 16.2121 275.698 16.7471 277.894 18.7803C279.447 20.1715 279.501 20.3855 278.751 21.0276C277.251 22.2047 275.591 25.3615 275.591 27.1272C275.591 29.642 276.448 31.5146 278.59 33.4943L280.519 35.2065L279.287 37.7748C278.59 39.1659 277.09 41.3061 276.019 42.4297C273.877 44.677 273.073 44.784 268.092 43.4999C266.967 43.1788 265.467 43.1788 264.342 43.4999C259.468 44.7305 258.718 44.6235 256.575 42.4833C254.165 40.0755 251.701 35.046 250.897 30.8726C249.772 24.6124 252.343 19.0479 257.111 17.3892C259.735 16.4796 259.843 16.4796 262.467 17.3892ZM358.187 25.4685C358.348 25.5755 358.402 26.1641 358.241 26.8062C357.973 27.7693 357.652 27.8228 355.884 27.5552C353.42 27.1272 351.813 27.5552 351.117 28.8929C350.26 30.498 351.063 31.5146 354.384 33.1733C357.813 34.939 359.152 36.4371 359.152 38.6309C359.152 42.5368 356.152 44.677 351.278 44.3024C348.171 44.0349 347.153 43.4464 347.635 42.1622C347.903 41.4667 348.599 41.3596 351.278 41.5737C355.081 41.8947 356.152 41.2526 355.831 38.6844C355.724 37.4537 355.081 36.8652 352.51 35.5811C348.814 33.6549 347.903 32.5312 347.903 29.963C347.903 27.8763 349.189 26.2176 351.653 25.201C352.831 24.7195 357.223 24.88 358.187 25.4685ZM306.39 34.3504C307.997 39.3799 309.336 43.7139 309.336 43.9814C309.336 44.2489 308.694 44.4094 307.89 44.3024C306.605 44.1954 306.23 43.7139 305.373 41.3061L304.355 38.5239H301.355H298.302L297.338 41.4667C296.588 43.9814 296.213 44.4094 295.088 44.4094C294.285 44.4094 293.803 44.0884 293.803 43.5534C293.803 42.8043 298.998 26.4851 299.534 25.522C299.641 25.308 300.605 25.1475 301.57 25.1475H303.391L306.39 34.3504ZM366.115 28.8929C366.115 30.3375 366.276 30.498 367.722 30.498C368.954 30.498 369.329 30.7121 369.329 31.5681C369.329 32.4242 368.954 32.6383 367.722 32.6383H366.062L366.222 37.0257C366.383 41.4131 366.383 41.4667 367.883 41.6272C369.008 41.7877 369.329 42.1087 369.329 43.1253C369.329 44.2489 369.115 44.4094 367.294 44.4094C364.026 44.4094 363.223 43.1253 363.008 37.4002C362.794 33.1198 362.687 32.6383 361.776 32.6383C361.134 32.6383 360.759 32.2637 360.759 31.5681C360.759 30.8726 361.134 30.498 361.83 30.498C362.58 30.498 362.901 30.1235 362.901 29.2139C362.901 27.8763 363.49 27.3947 365.204 27.3412C365.847 27.2877 366.115 27.7158 366.115 28.8929ZM321.924 30.7121C324.174 31.6752 325.406 33.9759 325.406 37.1862C325.406 39.9685 324.388 42.3227 322.62 43.5534C321.067 44.6235 317.96 44.6235 316.407 43.5534L315.229 42.7508V46.2286V49.76H313.622H312.015V40.129V30.498H313.3C313.997 30.498 314.746 30.8726 314.907 31.3541C315.229 32.1567 315.336 32.1567 316.193 31.4611C318.014 29.856 319.407 29.6955 321.924 30.7121ZM338.958 31.4611C341.529 33.7619 342.172 37.6678 340.618 40.9851C339.118 44.0884 334.458 45.5331 332.262 43.4999C331.352 42.6973 331.298 42.8043 331.298 46.1751V49.76H329.691H328.084V40.129V30.498H329.423C330.28 30.498 330.762 30.8191 330.762 31.3006C330.762 32.2102 331.619 32.3707 332.101 31.5146C333.173 29.8025 337.083 29.749 338.958 31.4611ZM382.185 31.4611C385.452 33.8689 385.613 39.4869 382.452 42.6438C380.899 44.1954 380.31 44.4094 377.953 44.4094C375.757 44.4094 374.953 44.1419 373.614 42.9113C370.829 40.45 370.507 35.2065 372.918 32.5312C375.221 29.9095 379.399 29.4279 382.185 31.4611ZM394.504 31.5681C394.504 32.7453 394.237 33.1733 393.594 33.1733C391.451 33.2268 391.023 34.0829 390.755 39.1659C390.487 44.1419 390.487 44.1419 389.041 44.3024L387.541 44.463V37.5072V30.498H388.88C389.898 30.498 390.219 30.7656 390.219 31.6752C390.273 32.7988 390.273 32.7988 390.808 31.9427C391.344 31.0866 393.005 30.07 394.129 30.0165C394.344 29.963 394.504 30.6586 394.504 31.5681ZM406.717 31.7822C407.574 32.5847 408.11 33.8689 408.271 35.5275L408.592 37.9888H403.932C399.754 37.9888 399.325 38.0958 399.325 39.0054C399.325 39.594 399.968 40.5571 400.825 41.1991C402.003 42.1622 402.7 42.3227 404.735 42.0552C406.664 41.7877 407.306 41.8947 407.521 42.5368C408.056 43.7674 405.914 44.57 402.7 44.3024C400.343 44.0884 399.486 43.7139 398.093 42.3762C396.593 40.8246 396.379 40.343 396.433 37.5608C396.433 35.474 396.754 34.0294 397.45 32.9593C399.54 29.8025 404.2 29.2139 406.717 31.7822Z" fill="black"/>
<path d="M296.481 13.6438C296.481 17.0147 296.535 17.1217 297.82 17.1217C299.641 17.1217 301.302 15.356 301.302 13.4298C301.302 11.3966 300.07 10.166 298.034 10.166H296.481V13.6438Z" fill="black"/>
<path d="M355.456 13.0553C354.385 14.3394 354.92 16.8007 356.313 17.0147C357.224 17.1752 357.599 16.8542 357.866 15.7306C358.456 13.3763 356.741 11.5037 355.456 13.0553Z" fill="black"/>
<path d="M306.658 13.4298C306.176 14.2859 306.176 14.928 306.605 15.8376C307.408 17.6033 309.229 17.4962 309.658 15.6771C310.354 13.0553 307.837 11.1826 306.658 13.4298Z" fill="black"/>
<path d="M339.44 12.7878C339.011 13.0553 338.797 13.9649 338.904 15.035C339.011 16.5867 339.279 16.8542 340.404 16.8542C341.475 16.8542 341.797 16.5332 341.904 15.356C342.011 14.4999 341.797 13.4833 341.422 13.0553C340.725 12.1992 340.404 12.1457 339.44 12.7878Z" fill="black"/>
<path d="M347.046 15.57C346.564 16.3726 347.689 17.3357 348.653 16.9612C349.135 16.7471 349.51 16.2656 349.51 15.784C349.51 14.8744 347.635 14.6604 347.046 15.57Z" fill="black"/>
<path d="M368.472 12.7343C366.865 13.8044 367.454 17.1217 369.275 17.1217C370.025 17.1217 370.507 16.6402 370.722 15.6771C371.257 13.6438 369.865 11.7712 368.472 12.7343Z" fill="black"/>
<path d="M403.075 13.1088C402.486 13.8044 402.646 13.9114 404.039 13.9114C405.325 13.9114 405.646 13.6974 405.432 13.1088C405.217 12.6808 404.789 12.3062 404.414 12.3062C404.039 12.3062 403.45 12.6808 403.075 13.1088Z" fill="black"/>
<path d="M301.141 28.8929C298.57 36.5976 298.57 36.3836 301.57 36.3836C302.909 36.3836 303.98 36.3301 303.98 36.2231C303.926 34.9925 301.302 28.3043 301.141 28.8929Z" fill="black"/>
<path d="M316.354 34.0294C314.747 36.0626 314.854 39.2729 316.568 40.9316C318.228 42.5903 319.193 42.5903 320.853 40.9316C321.871 39.9685 322.192 39.0589 322.192 37.1862C322.192 32.9593 318.657 31.0866 316.354 34.0294Z" fill="black"/>
<path d="M332.37 33.7084C331.62 34.4574 331.298 35.4741 331.298 37.2932C331.298 40.1825 331.566 40.7711 333.28 41.6807C334.941 42.5368 335.476 42.4298 336.923 40.9316C338.905 39.0054 338.583 34.511 336.441 33.0663C335.369 32.3172 333.441 32.6383 332.37 33.7084Z" fill="black"/>
<path d="M375.596 33.5479C373.668 35.7416 374.096 40.5571 376.399 41.7877C380.203 43.8209 383.416 37.1327 380.256 33.6549C379.131 32.3707 376.721 32.3707 375.596 33.5479Z" fill="black"/>
<path d="M400.396 33.2803C398.522 35.3135 399.004 35.8486 402.539 35.8486C404.307 35.8486 405.753 35.6881 405.753 35.5275C405.753 34.939 404.521 32.9058 403.932 32.5312C402.86 31.7822 401.521 32.1032 400.396 33.2803Z" fill="black"/>
</svg>
