<svg width="206" height="34" viewBox="0 0 206 34" fill="none" xmlns="http://www.w3.org/2000/svg">
<g clip-path="url(#clip0_380_205)">
<path d="M77.0006 12.5739C73.2387 12.5693 70.2144 15.5472 70.2074 19.2621C70.2005 22.9354 73.234 25.933 76.9681 25.9434C80.694 25.9538 83.7112 22.9759 83.7275 19.2725C83.7438 15.5772 80.7312 12.5774 77.0006 12.5739ZM82.6349 14.1287C83.6798 12.843 84.7352 11.5585 85.7708 10.2578C86.0687 9.88474 85.964 9.47813 85.5474 9.12582C80.7068 5.03433 73.2596 5.03548 68.4422 9.12813C67.9721 9.5278 67.9349 9.91131 68.327 10.3988C68.8902 11.0976 69.4581 11.7919 70.0247 12.4884C70.4681 13.0336 70.9126 13.5789 71.3408 14.1033C71.9785 13.6054 72.5789 13.1364 73.2061 12.6455C72.5347 11.8127 71.8574 10.9729 71.1802 10.1331C74.3825 7.84593 79.6746 7.86903 82.8106 10.1377C82.1252 10.989 81.4398 11.8392 80.7754 12.664C81.4061 13.1619 81.996 13.6251 82.6349 14.1287Z" fill="white"/>
<path d="M77.0006 12.5739C80.73 12.5785 83.7437 15.5784 83.7286 19.2725C83.7135 22.9759 80.6962 25.9538 76.9692 25.9434C73.2339 25.933 70.2016 22.9354 70.2085 19.2621C70.2155 15.546 73.2398 12.5693 77.0006 12.5739Z" fill="white" stroke="black" stroke-miterlimit="10"/>
<path d="M82.6348 14.1287C81.996 13.625 81.406 13.1607 80.7742 12.664C81.4386 11.8392 82.124 10.989 82.8094 10.1377C79.6734 7.87017 74.3813 7.84591 71.179 10.1331C71.8574 10.974 72.5334 11.8126 73.2049 12.6455C72.5777 13.1353 71.9772 13.6043 71.3396 14.1033C70.9125 13.5788 70.468 13.0336 70.0235 12.4884C69.4568 11.7918 68.889 11.0976 68.3258 10.3988C67.9325 9.91129 67.9709 9.52778 68.441 9.12811C73.2584 5.03431 80.7055 5.03315 85.5462 9.1258C85.9628 9.47811 86.0675 9.88357 85.7696 10.2578C84.7351 11.5585 83.6797 12.843 82.6348 14.1287Z" fill="white" stroke="black" stroke-miterlimit="10"/>
</g>
<path d="M3.772 25V14.19H0V10.188H13.11V14.19H9.338V25H3.772ZM13.9222 25V10.188H19.4882V15.018H23.1912V10.188H28.7572V25H23.1912V20.17H19.4882V25H13.9222ZM30.3636 25V10.188H42.2086V14.19H35.9296V15.524H41.3346V19.664H35.9296V20.998H42.2086V25H30.3636ZM50.6036 25L47.1536 10.188H52.5816L53.7086 15.846L54.5596 12.695V10.188H59.0906L60.7466 15.869L62.0116 10.188H67.4166L63.9896 25H59.1366L57.3656 19.158L55.4566 25H50.6036ZM86.5833 25V10.188H93.6213C95.1853 10.188 96.5423 10.441 97.6923 10.947C98.8423 11.4377 99.7317 12.235 100.36 13.339C100.989 14.4277 101.303 15.8767 101.303 17.686C101.303 19.4033 100.989 20.7987 100.36 21.872C99.747 22.9453 98.8653 23.735 97.7153 24.241C96.5807 24.747 95.216 25 93.6213 25H86.5833ZM92.1493 20.768H92.9773C93.5293 20.768 94.0047 20.6913 94.4033 20.538C94.802 20.3847 95.1087 20.0857 95.3233 19.641C95.538 19.1963 95.6453 18.5447 95.6453 17.686C95.6453 16.8273 95.5457 16.191 95.3463 15.777C95.147 15.3477 94.848 15.0717 94.4493 14.949C94.066 14.811 93.5753 14.742 92.9773 14.742H92.1493V20.768ZM106.821 25V10.188H115.607C117.125 10.188 118.298 10.5483 119.126 11.269C119.969 11.9897 120.391 13.0247 120.391 14.374C120.391 15.11 120.26 15.7387 120 16.26C119.754 16.7813 119.425 17.1953 119.011 17.502C119.593 17.778 120.053 18.1383 120.391 18.583C120.728 19.0123 120.897 19.6563 120.897 20.515C120.897 21.9103 120.437 23.0067 119.517 23.804C118.612 24.6013 117.339 25 115.699 25H106.821ZM112.042 15.869H114.112C114.848 15.869 115.216 15.5393 115.216 14.88C115.216 14.2667 114.848 13.96 114.112 13.96H112.042V15.869ZM112.042 21.228H114.112C114.848 21.228 115.216 20.8983 115.216 20.239C115.216 19.6257 114.848 19.319 114.112 19.319H112.042V21.228ZM129.228 25.23C127.833 25.23 126.575 25 125.456 24.54C124.337 24.08 123.447 23.3977 122.788 22.493C122.144 21.5883 121.822 20.4767 121.822 19.158V10.188H127.388V18.445C127.388 19.825 128.001 20.515 129.228 20.515C130.455 20.515 131.068 19.825 131.068 18.445V10.188H136.634V19.158C136.634 20.4767 136.304 21.5883 135.645 22.493C135.001 23.3977 134.119 24.08 133 24.54C131.881 25 130.623 25.23 129.228 25.23ZM138.131 25V10.188H143.697V25H138.131ZM145.296 25V10.188H150.862V20.768H156.911V25H145.296ZM157.717 25V10.188H164.755C166.319 10.188 167.676 10.441 168.826 10.947C169.976 11.4377 170.865 12.235 171.494 13.339C172.123 14.4277 172.437 15.8767 172.437 17.686C172.437 19.4033 172.123 20.7987 171.494 21.872C170.881 22.9453 169.999 23.735 168.849 24.241C167.714 24.747 166.35 25 164.755 25H157.717ZM163.283 20.768H164.111C164.663 20.768 165.138 20.6913 165.537 20.538C165.936 20.3847 166.242 20.0857 166.457 19.641C166.672 19.1963 166.779 18.5447 166.779 17.686C166.779 16.8273 166.679 16.191 166.48 15.777C166.281 15.3477 165.982 15.0717 165.583 14.949C165.2 14.811 164.709 14.742 164.111 14.742H163.283V20.768ZM173.462 25V10.188H185.307V14.19H179.028V15.524H184.433V19.664H179.028V20.998H185.307V25H173.462ZM186.22 25V10.188H194.546C195.819 10.188 196.869 10.4333 197.697 10.924C198.525 11.3993 199.138 12.0587 199.537 12.902C199.951 13.73 200.158 14.673 200.158 15.731C200.158 16.7277 199.897 17.6017 199.376 18.353C198.87 19.1043 198.257 19.7253 197.536 20.216C197.705 20.3233 197.835 20.446 197.927 20.584C198.019 20.7067 198.096 20.837 198.157 20.975L199.905 25H194.109L192.66 21.711C192.583 21.527 192.499 21.4043 192.407 21.343C192.315 21.2663 192.185 21.228 192.016 21.228H191.786V25H186.22ZM191.786 16.881H193.143C194.048 16.881 194.5 16.4977 194.5 15.731C194.5 15.3017 194.393 14.995 194.178 14.811C193.979 14.627 193.664 14.535 193.235 14.535H191.786V16.881Z" fill="white"/>
<defs>
<clipPath id="clip0_380_205">
<rect width="18" height="20" fill="white" transform="translate(68 6)"/>
</clipPath>
</defs>
</svg>
