<svg width="223" height="33" viewBox="0 0 223 33" fill="none" xmlns="http://www.w3.org/2000/svg">
<g clip-path="url(#clip0_56_925)">
<path d="M84.5511 10.6319C78.5687 10.6244 73.7595 15.4406 73.7484 21.4487C73.7373 27.3895 78.5613 32.2374 84.4993 32.2542C90.4244 32.271 95.2225 27.4549 95.2484 21.4655C95.2743 15.4891 90.4836 10.6375 84.5511 10.6319ZM93.5108 13.1464C95.1725 11.0671 96.8508 8.98972 98.4977 6.88615C98.9714 6.28272 98.8049 5.62512 98.1424 5.05533C90.4447 -1.56179 78.6021 -1.55992 70.9413 5.05906C70.1938 5.70545 70.1346 6.32569 70.7581 7.11407C71.6538 8.24432 72.5568 9.3671 73.4579 10.4936C74.1629 11.3754 74.8698 12.2572 75.5507 13.1053C76.5647 12.3001 77.5196 11.5417 78.5169 10.7477C77.4492 9.40072 76.3723 8.04255 75.2954 6.68438C80.3877 2.98538 88.8034 3.02274 93.7903 6.69186C92.7004 8.06871 91.6105 9.44369 90.5539 10.7776C91.5568 11.5828 92.495 12.3319 93.5108 13.1464Z" fill="white"/>
<path d="M84.5514 10.6318C90.482 10.6393 95.2745 15.491 95.2505 21.4655C95.2264 27.4549 90.4283 32.271 84.5014 32.2542C78.5616 32.2374 73.7394 27.3895 73.7505 21.4486C73.7616 15.4387 78.5708 10.6244 84.5514 10.6318Z" fill="white" stroke="black" stroke-miterlimit="10"/>
<path d="M93.511 13.1464C92.4951 12.3319 91.557 11.5809 90.5522 10.7776C91.6088 9.44369 92.6987 8.06871 93.7886 6.69185C88.8017 3.02461 80.386 2.98537 75.2937 6.68438C76.3725 8.04442 77.4476 9.40072 78.5152 10.7477C77.5179 11.5398 76.5631 12.2983 75.549 13.1053C74.8699 12.2572 74.1631 11.3754 73.4562 10.4936C72.5551 9.36709 71.6521 8.24432 70.7565 7.11406C70.131 6.32569 70.1921 5.70545 70.9396 5.05906C78.6004 -1.56179 90.443 -1.56366 98.1407 5.05532C98.8032 5.62512 98.9697 6.28085 98.496 6.88615C96.851 8.98972 95.1727 11.0671 93.511 13.1464Z" fill="white" stroke="black" stroke-miterlimit="10"/>
</g>
<path d="M4.1 29.0122V17.2622H0V12.9122H14.25V17.2622H10.15V29.0122H4.1ZM15.1328 29.0122V12.9122H21.1828V18.1622H25.2078V12.9122H31.2578V29.0122H25.2078V23.7622H21.1828V29.0122H15.1328ZM33.0039 29.0122V12.9122H45.8789V17.2622H39.0539V18.7122H44.9289V23.2122H39.0539V24.6622H45.8789V29.0122H33.0039ZM55.0039 29.0122L51.2539 12.9122H57.1539L58.3789 19.0622L59.3039 15.6372V12.9122H64.2289L66.0289 19.0872L67.4039 12.9122H73.2789L69.5539 29.0122H64.2789L62.3539 22.6622L60.2789 29.0122H55.0039ZM98.9951 29.0122V12.9122H106.645C108.345 12.9122 109.82 13.1872 111.07 13.7372C112.32 14.2705 113.287 15.1372 113.97 16.3372C114.653 17.5205 114.995 19.0955 114.995 21.0622C114.995 22.9289 114.653 24.4455 113.97 25.6122C113.303 26.7789 112.345 27.6372 111.095 28.1872C109.862 28.7372 108.378 29.0122 106.645 29.0122H98.9951ZM105.045 24.4122H105.945C106.545 24.4122 107.062 24.3289 107.495 24.1622C107.928 23.9955 108.262 23.6705 108.495 23.1872C108.728 22.7039 108.845 21.9955 108.845 21.0622C108.845 20.1289 108.737 19.4372 108.52 18.9872C108.303 18.5205 107.978 18.2205 107.545 18.0872C107.128 17.9372 106.595 17.8622 105.945 17.8622H105.045V24.4122ZM120.992 29.0122V12.9122H130.542C132.192 12.9122 133.467 13.3039 134.367 14.0872C135.284 14.8705 135.742 15.9955 135.742 17.4622C135.742 18.2622 135.601 18.9455 135.317 19.5122C135.051 20.0789 134.692 20.5289 134.242 20.8622C134.876 21.1622 135.376 21.5539 135.742 22.0372C136.109 22.5039 136.292 23.2039 136.292 24.1372C136.292 25.6539 135.792 26.8455 134.792 27.7122C133.809 28.5789 132.426 29.0122 130.642 29.0122H120.992ZM126.667 19.0872H128.917C129.717 19.0872 130.117 18.7289 130.117 18.0122C130.117 17.3455 129.717 17.0122 128.917 17.0122H126.667V19.0872ZM126.667 24.9122H128.917C129.717 24.9122 130.117 24.5539 130.117 23.8372C130.117 23.1705 129.717 22.8372 128.917 22.8372H126.667V24.9122ZM145.348 29.2622C143.831 29.2622 142.465 29.0122 141.248 28.5122C140.031 28.0122 139.065 27.2705 138.348 26.2872C137.648 25.3039 137.298 24.0955 137.298 22.6622V12.9122H143.348V21.8872C143.348 23.3872 144.015 24.1372 145.348 24.1372C146.681 24.1372 147.348 23.3872 147.348 21.8872V12.9122H153.398V22.6622C153.398 24.0955 153.04 25.3039 152.323 26.2872C151.623 27.2705 150.665 28.0122 149.448 28.5122C148.231 29.0122 146.865 29.2622 145.348 29.2622ZM155.025 29.0122V12.9122H161.075V29.0122H155.025ZM162.813 29.0122V12.9122H168.863V24.4122H175.438V29.0122H162.813ZM176.314 29.0122V12.9122H183.964C185.664 12.9122 187.139 13.1872 188.389 13.7372C189.639 14.2705 190.606 15.1372 191.289 16.3372C191.973 17.5205 192.314 19.0955 192.314 21.0622C192.314 22.9289 191.973 24.4455 191.289 25.6122C190.623 26.7789 189.664 27.6372 188.414 28.1872C187.181 28.7372 185.698 29.0122 183.964 29.0122H176.314ZM182.364 24.4122H183.264C183.864 24.4122 184.381 24.3289 184.814 24.1622C185.248 23.9955 185.581 23.6705 185.814 23.1872C186.048 22.7039 186.164 21.9955 186.164 21.0622C186.164 20.1289 186.056 19.4372 185.839 18.9872C185.623 18.5205 185.298 18.2205 184.864 18.0872C184.448 17.9372 183.914 17.8622 183.264 17.8622H182.364V24.4122ZM193.429 29.0122V12.9122H206.304V17.2622H199.479V18.7122H205.354V23.2122H199.479V24.6622H206.304V29.0122H193.429ZM207.296 29.0122V12.9122H216.346C217.729 12.9122 218.871 13.1789 219.771 13.7122C220.671 14.2289 221.338 14.9455 221.771 15.8622C222.221 16.7622 222.446 17.7872 222.446 18.9372C222.446 20.0205 222.163 20.9705 221.596 21.7872C221.046 22.6039 220.379 23.2789 219.596 23.8122C219.779 23.9289 219.921 24.0622 220.021 24.2122C220.121 24.3455 220.204 24.4872 220.271 24.6372L222.171 29.0122H215.871L214.296 25.4372C214.213 25.2372 214.121 25.1039 214.021 25.0372C213.921 24.9539 213.779 24.9122 213.596 24.9122H213.346V29.0122H207.296ZM213.346 20.1872H214.821C215.804 20.1872 216.296 19.7705 216.296 18.9372C216.296 18.4705 216.179 18.1372 215.946 17.9372C215.729 17.7372 215.388 17.6372 214.921 17.6372H213.346V20.1872Z" fill="black"/>
<defs>
<clipPath id="clip0_56_925">
<rect width="28.6241" height="32.3458" fill="white" transform="translate(70.2383)"/>
</clipPath>
</defs>
</svg>
